# File created by Blade
# Date/Time:  Thu Jan 22 19:34:15 2015
# Frame Rate: 120.000 fps
#------------------------------------------------------
:FULLY-SPECIFIED
:DEGREES
1601
root -5.264695 33.184063 -2.896160 5.715065 -4.592995 3.261445
RightUpLeg -1.104749 -3.760502 1.085484
RightLeg 3.479904 -0.000000 -0.000000
RightFoot -14.877206 -4.324369 1.000999
RightToeBase -6.612907 -0.000000 0.000000
LeftUpLeg -1.378576 0.565237 -3.684094
LeftLeg 3.643054 -0.000000 -0.000000
LeftFoot -10.910663 1.322446 -14.884654
LeftToeBase 1.302252 -0.000000 -0.000000
Spine -8.450982 -1.380563 -1.445371
RightShoulder -17.797175 -11.219933 -25.230214
RightArm 19.675780 24.342344 41.070832
RightForeArm -14.693500 -0.000000 7.564354
RightHand 11.157940 0.000000 10.053540
RightHandThumb1 -24.326973 -0.000000 -32.862282
LeftShoulder -22.170023 4.853816 30.339939
LeftArm 12.827000 -25.557167 -37.119775
LeftForeArm 24.598006 -0.000000 -2.542615
LeftHand -3.476415 -0.000000 -7.004824
LeftHandThumb1 -26.253704 0.000000 33.147579
Head -6.656205 11.633844 -2.867055
1602
root -5.256720 33.172098 -2.904956 5.544835 -4.627450 3.235995
RightUpLeg -0.869680 -4.165613 1.076301
RightLeg 3.331509 -0.000000 -0.000000
RightFoot -14.941799 -4.236720 0.755259
RightToeBase -6.806556 -0.000000 0.000000
LeftUpLeg -1.142622 0.995364 -3.696652
LeftLeg 3.484614 -0.000000 -0.000000
LeftFoot -10.913828 1.167808 -14.606178
LeftToeBase 1.561870 -0.000000 -0.000000
Spine -8.158574 -1.301837 -1.405030
RightShoulder -17.801658 -11.073071 -25.279448
RightArm 19.497995 24.431645 40.788018
RightForeArm -14.448620 -0.000000 7.610340
RightHand 11.183001 -0.000000 9.925865
RightHandThumb1 -24.326973 -0.000000 -32.862282
LeftShoulder -22.172056 4.725475 30.401280
LeftArm 12.677445 -25.402702 -36.696579
LeftForeArm 24.341915 0.000000 -2.521375
LeftHand -3.693764 0.000000 -6.600524
LeftHandThumb1 -26.253704 0.000000 33.147579
Head -6.974188 11.628641 -2.930520
1603
root -5.251072 33.159617 -2.914687 5.398228 -4.655558 3.194382
RightUpLeg -0.650395 -4.463731 1.079195
RightLeg 3.168762 -0.000000 -0.000000
RightFoot -14.981924 -4.215119 0.594185
RightToeBase -6.985765 -0.000000 0.000000
LeftUpLeg -0.892250 1.055747 -3.660606
LeftLeg 3.259096 -0.000000 -0.000000
LeftFoot -10.964231 1.208452 -14.546363
LeftToeBase 1.786687 -0.000000 -0.000000
Spine -7.885872 -1.236255 -1.355344
RightShoulder -17.807287 -10.991148 -25.315558
RightArm 19.361205 24.428459 40.499238
RightForeArm -14.207020 -0.000000 7.690784
RightHand 11.156972 -0.000000 9.777939
RightHandThumb1 -24.326973 -0.000000 -32.862282
LeftShoulder -22.212858 4.705608 30.438157
LeftArm 12.648539 -25.298024 -36.332210
LeftForeArm 24.105826 -0.000000 -2.475141
LeftHand -3.995637 0.000000 -6.331893
LeftHandThumb1 -26.253704 0.000000 33.147579
Head -7.301171 11.620095 -2.950790
1604
root -5.248889 33.149326 -2.926497 5.285778 -4.681324 3.167237
RightUpLeg -0.484799 -4.721481 1.076415
RightLeg 3.028866 -0.000000 -0.000000
RightFoot -15.000767 -4.203206 0.481166
RightToeBase -7.126203 -0.000000 0.000000
LeftUpLeg -0.808993 1.576076 -3.644302
LeftLeg 3.283965 -0.000000 -0.000000
LeftFoot -10.983957 0.887291 -14.286502
LeftToeBase 1.830753 -0.000000 -0.000000
Spine -7.656595 -1.196774 -1.338232
RightShoulder -17.814139 -11.018765 -25.318022
RightArm 19.341546 24.376498 40.253817
RightForeArm -13.873445 -0.000000 7.743420
RightHand 11.076956 -0.000000 9.581148
RightHandThumb1 -24.326973 -0.000000 -32.862282
LeftShoulder -22.257570 4.753066 30.470714
LeftArm 12.671270 -25.192894 -35.996011
LeftForeArm 23.758861 -0.000000 -2.490734
LeftHand -4.108251 0.000000 -6.066903
LeftHandThumb1 -26.253704 0.000000 33.147579
Head -7.566542 11.591946 -2.951950
1605
root -5.246037 33.142046 -2.946029 5.285571 -4.702409 3.165248
RightUpLeg -0.485025 -4.882233 1.054614
RightLeg 2.965799 -0.000000 -0.000000
RightFoot -15.049673 -4.232156 0.429009
RightToeBase -7.082210 -0.000000 0.000000
LeftUpLeg -0.865999 1.817457 -3.639067
LeftLeg 3.332622 -0.000000 -0.000000
LeftFoot -11.012839 0.724521 -14.167459
LeftToeBase 1.819942 -0.000000 -0.000000
Spine -7.555585 -1.182085 -1.359658
RightShoulder -17.813921 -11.088865 -25.312330
RightArm 19.357166 24.281767 40.051362
RightForeArm -13.662365 -0.000000 7.755213
RightHand 11.125026 -0.000000 9.447164
RightHandThumb1 -24.326973 -0.000000 -32.862282
LeftShoulder -22.319123 4.884782 30.492875
LeftArm 12.750836 -25.143568 -35.710435
LeftForeArm 23.362085 -0.000000 -2.513077
LeftHand -4.241557 -0.000000 -5.840018
LeftHandThumb1 -26.253704 0.000000 33.147579
Head -7.796643 11.583014 -2.897384
1606
root -5.242457 33.137604 -2.971956 5.385346 -4.695196 3.174178
RightUpLeg -0.624861 -5.018820 1.041029
RightLeg 2.950692 -0.000000 -0.000000
RightFoot -15.053548 -4.287155 0.294678
RightToeBase -6.930538 -0.000000 0.000000
LeftUpLeg -1.066552 1.849373 -3.637806
LeftLeg 3.446862 -0.000000 -0.000000
LeftFoot -11.068828 0.677172 -14.186258
LeftToeBase 1.823632 -0.000000 -0.000000
Spine -7.564600 -1.159619 -1.413802
RightShoulder -17.876843 -11.284699 -25.272195
RightArm 19.475588 24.330100 39.998298
RightForeArm -13.514911 -0.000000 7.818211
RightHand 11.216283 -0.000000 9.583260
RightHandThumb1 -24.326973 -0.000000 -32.862282
LeftShoulder -22.349185 5.033189 30.557611
LeftArm 12.838364 -25.119784 -35.514073
LeftForeArm 23.074901 0.000000 -2.465467
LeftHand -4.301495 -0.000000 -5.713531
LeftHandThumb1 -26.253704 0.000000 33.147579
Head -8.005181 11.540743 -2.803324
1607
root -5.239681 33.136493 -3.000632 5.530469 -4.681124 3.196184
RightUpLeg -0.856969 -5.005951 1.022133
RightLeg 3.012832 -0.000000 -0.000000
RightFoot -15.055605 -4.346730 0.319441
RightToeBase -6.805482 -0.000000 0.000000
LeftUpLeg -1.342655 1.787179 -3.644811
LeftLeg 3.608295 -0.000000 -0.000000
LeftFoot -11.128347 0.684106 -14.289031
LeftToeBase 1.879212 -0.000000 -0.000000
Spine -7.636363 -1.123593 -1.472233
RightShoulder -17.930545 -11.464560 -25.211513
RightArm 19.574380 24.234893 39.874478
RightForeArm -13.390483 -0.000000 7.790773
RightHand 11.287256 -0.000000 9.245707
RightHandThumb1 -24.326973 -0.000000 -32.862282
LeftShoulder -22.335450 5.169363 30.576637
LeftArm 12.937888 -25.065781 -35.292415
LeftForeArm 22.781215 -0.000000 -2.490787
LeftHand -4.248575 0.000000 -5.619832
LeftHandThumb1 -26.253704 0.000000 33.147579
Head -8.143136 11.451276 -2.739619
1608
root -5.234690 33.138250 -3.028993 5.685048 -4.668249 3.233350
RightUpLeg -1.115775 -4.892917 0.990663
RightLeg 3.112924 -0.000000 -0.000000
RightFoot -15.053860 -4.519035 0.229088
RightToeBase -6.721658 -0.000000 0.000000
LeftUpLeg -1.631834 1.539985 -3.661754
LeftLeg 3.770546 -0.000000 -0.000000
LeftFoot -11.177342 0.809356 -14.507669
LeftToeBase 1.947135 -0.000000 -0.000000
Spine -7.739070 -1.079569 -1.544991
RightShoulder -17.986209 -11.691152 -25.142116
RightArm 19.712572 24.177329 39.804136
RightForeArm -13.176471 -0.000000 7.810979
RightHand 11.180824 0.000000 9.159811
RightHandThumb1 -24.326973 -0.000000 -32.862282
LeftShoulder -22.296274 5.318952 30.589835
LeftArm 13.057830 -25.108879 -35.137323
LeftForeArm 22.570507 0.000000 -2.501784
LeftHand -4.215169 -0.000000 -5.582659
LeftHandThumb1 -26.253704 0.000000 33.147579
Head -8.193745 11.350391 -2.671899
1609
root -5.231600 33.141156 -3.053919 5.828441 -4.678939 3.264771
RightUpLeg -1.367063 -4.747200 0.968719
RightLeg 3.212406 -0.000000 -0.000000
RightFoot -14.999472 -4.638602 0.164971
RightToeBase -6.621436 -0.000000 0.000000
LeftUpLeg -1.916944 1.357031 -3.678546
LeftLeg 3.964558 -0.000000 -0.000000
LeftFoot -11.236161 0.933251 -14.659550
LeftToeBase 2.028337 -0.000000 -0.000000
Spine -7.847357 -1.032482 -1.612983
RightShoulder -18.044999 -11.883826 -25.076460
RightArm 19.873220 24.112746 39.782285
RightForeArm -13.199321 -0.000000 7.808551
RightHand 11.326504 -0.000000 8.937320
RightHandThumb1 -24.326973 -0.000000 -32.862282
LeftShoulder -22.259284 5.448079 30.609938
LeftArm 13.150749 -25.124319 -35.012293
LeftForeArm 22.443302 0.000000 -2.477826
LeftHand -4.210203 0.000000 -5.545029
LeftHandThumb1 -26.253704 0.000000 33.147579
Head -8.198004 11.252674 -2.602280
1610
root -5.227154 33.145043 -3.075876 5.936994 -4.714281 3.296468
RightUpLeg -1.605821 -4.555591 0.938018
RightLeg 3.378289 -0.000000 -0.000000
RightFoot -14.994362 -4.718130 0.197972
RightToeBase -6.100406 -0.000000 0.000000
LeftUpLeg -2.159814 1.184169 -3.700081
LeftLeg 4.149512 -0.000000 -0.000000
LeftFoot -11.285734 1.070703 -14.828310
LeftToeBase 1.985548 -0.000000 -0.000000
Spine -7.932952 -0.980887 -1.673221
RightShoulder -18.080667 -12.101015 -24.994430
RightArm 20.075657 24.147855 39.814170
RightForeArm -13.158664 -0.000000 7.812879
RightHand 11.415232 0.000000 8.975252
RightHandThumb1 -24.326973 -0.000000 -32.862282
LeftShoulder -22.221625 5.571747 30.630352
LeftArm 13.233094 -25.107939 -34.924834
LeftForeArm 22.341302 -0.000000 -2.462609
LeftHand -4.212392 -0.000000 -5.477617
LeftHandThumb1 -26.253704 0.000000 33.147579
Head -8.139204 11.162875 -2.546043
1611
root -5.220093 33.148893 -3.092501 5.999087 -4.756743 3.313776
RightUpLeg -1.754091 -4.416605 0.920828
RightLeg 3.450944 -0.000000 -0.000000
RightFoot -14.875784 -4.833986 0.150245
RightToeBase -5.898986 -0.000000 0.000000
LeftUpLeg -2.278608 0.871338 -3.712111
LeftLeg 4.206209 -0.000000 -0.000000
LeftFoot -11.343783 1.377158 -15.003833
LeftToeBase 2.038027 -0.000000 -0.000000
Spine -7.984547 -0.945651 -1.693429
RightShoulder -18.078249 -12.237911 -24.963915
RightArm 20.222272 24.119256 39.852586
RightForeArm -13.152908 -0.000000 7.849832
RightHand 11.384657 0.000000 8.930200
RightHandThumb1 -24.326973 -0.000000 -32.862282
LeftShoulder -22.190528 5.691199 30.641617
LeftArm 13.296239 -25.119306 -34.883539
LeftForeArm 22.289682 0.000000 -2.434683
LeftHand -4.213462 -0.000000 -5.447918
LeftHandThumb1 -26.253704 0.000000 33.147579
Head -8.024083 11.106954 -2.521217
